#!OML:ASF E:\VariousWalksJay\Project 1\Capture day 1\Session 1\Actor2.ASF
:FULLY-SPECIFIED
:DEGREES
1283
root -6.84165 16.8824 40.589 5.23992 -23.1017 -5.3295
lowerback -3.1747 -0.355283 5.11477
upperback 1.54665 -0.704024 -0.190602
thorax 3.3178 -0.23628 -3.10852
lowerneck -11.0705 -5.08963 -4.66672
upperneck 15.5397 -7.92181 9.85421
head 7.16818 -3.28906 3.19134
rclavicle -1.963e-014 3.97569e-016
rhumerus -31.0496 1.92909 -85.814
rradius 28.5753
rwrist -0.0472348
rhand -7.8956 -9.62552
rfingers 7.12502
rthumb 18.0093 -38.8117
lclavicle -1.963e-014 3.97569e-016
lhumerus -212.19 -175.227 262.039
lradius 25.8758
lwrist 4.70309
lhand -3.71304 -4.73131
lfingers 7.12502
lthumb 22.0295 24.034
rfemur -11.8766 -4.31656 25.446
rtibia 32.8472
rfoot -22.5651 -5.31067
rtoes 3.34647
lfemur -7.63285 3.07842 -16.4164
ltibia 27.4962
lfoot -22.487 8.00974
ltoes -3.8737
1284
root -6.84377 16.8823 40.5895 5.24158 -23.0775 -5.33668
lowerback -3.1768 -0.354139 5.14079
upperback 1.55227 -0.704075 -0.188031
thorax 3.32465 -0.235477 -3.12055
lowerneck -11.0778 -5.09522 -4.67172
upperneck 15.533 -7.92787 9.85534
head 7.16806 -3.29205 3.1917
rclavicle 7.70291e-015 1.51076e-014
rhumerus -31.0261 1.9306 -85.8036
rradius 28.5749
rwrist -0.0492068
rhand -7.90762 -9.63421
rfingers 7.12502
rthumb 17.9977 -38.8215
lclavicle 7.70291e-015 1.51076e-014
lhumerus -212.155 -175.183 262.061
lradius 25.9207
lwrist 4.73132
lhand -3.71885 -4.73788
lfingers 7.12502
lthumb 22.0239 24.0281
rfemur -11.8664 -4.31506 25.4644
rtibia 32.839
rfoot -22.5694 -5.33389
rtoes 3.33456
lfemur -7.63994 3.0764 -16.3982
ltibia 27.5117
lfoot -22.4875 7.99184
ltoes -3.89334
1285
root -6.84586 16.8822 40.5901 5.24359 -23.0524 -5.34749
lowerback -3.18118 -0.353154 5.17066
upperback 1.5603 -0.704746 -0.184885
thorax 3.33522 -0.234757 -3.13422
lowerneck -11.0886 -5.10172 -4.67489
upperneck 15.5247 -7.9353 9.85666
head 7.16809 -3.2955 3.1916
rclavicle 8.24956e-015 0
rhumerus -30.999 1.92533 -85.7916
rradius 28.5732
rwrist -0.0468242
rhand -7.92093 -9.64249
rfingers 7.12502
rthumb 17.9849 -38.8309
lclavicle 8.24956e-015 0
lhumerus -212.118 -175.138 262.084
lradius 25.9662
lwrist 4.75962
lhand -3.72611 -4.74421
lfingers 7.12502
lthumb 22.0169 24.0226
rfemur -11.8535 -4.31862 25.4853
rtibia 32.8301
rfoot -22.5735 -5.35281
rtoes 3.31439
lfemur -7.6449 3.07501 -16.3767
ltibia 27.5272
lfoot -22.4886 7.97528
ltoes -3.91743
1286
root -6.84789 16.882 40.5911 5.24472 -23.0264 -5.35645
lowerback -3.18661 -0.354233 5.19785
upperback 1.5679 -0.708123 -0.181172
thorax 3.34571 -0.235456 -3.14597
lowerneck -11.1032 -5.10735 -4.67213
upperneck 15.5203 -7.94151 9.85056
head 7.16939 -3.2984 3.18817
rclavicle -2.95692e-014 -1.70955e-014
rhumerus -30.9694 1.91979 -85.7788
rradius 28.5656
rwrist -0.038773
rhand -7.93759 -9.65087
rfingers 7.12502
rthumb 17.9689 -38.8408
lclavicle -2.95692e-014 -1.70955e-014
lhumerus -212.086 -175.097 262.108
lradius 26.0153
lwrist 4.78657
lhand -3.73253 -4.75007
lfingers 7.12502
lthumb 22.0108 24.0175
rfemur -11.8399 -4.33332 25.5021
rtibia 32.8237
rfoot -22.5794 -5.36147
rtoes 3.28866
lfemur -7.64627 3.0738 -16.3581
ltibia 27.5386
lfoot -22.49 7.95812
ltoes -3.94129
1287
root -6.84995 16.8818 40.5921 5.24356 -22.9989 -5.35609
lowerback -3.19191 -0.358396 5.21295
upperback 1.57453 -0.714963 -0.179109
thorax 3.35486 -0.238179 -3.15282
lowerneck -11.1186 -5.11086 -4.66563
upperneck 15.5149 -7.94553 9.84527
head 7.17024 -3.29998 3.18459
rclavicle -5.56597e-015 -6.36111e-015
rhumerus -30.9412 1.91787 -85.7686
rradius 28.5619
rwrist -0.0288013
rhand -7.95285 -9.66118
rfingers 7.12502
rthumb 17.9542 -38.8525
lclavicle -5.56597e-015 -6.36111e-015
lhumerus -212.06 -175.059 262.131
lradius 26.0695
lwrist 4.81351
lhand -3.73896 -4.75001
lfingers 7.12502
lthumb 22.0046 24.0183
rfemur -11.8298 -4.3529 25.509
rtibia 32.8215
rfoot -22.5864 -5.36672
rtoes 3.25922
lfemur -7.64655 3.07536 -16.3492
ltibia 27.5442
lfoot -22.4862 7.94032
ltoes -3.97446
1288
root -6.85202 16.8817 40.5931 5.24123 -22.9713 -5.34074
lowerback -3.20226 -0.364991 5.21024
upperback 1.57986 -0.724396 -0.179569
thorax 3.36538 -0.242542 -3.15248
lowerneck -11.128 -5.1103 -4.65737
upperneck 15.5034 -7.94419 9.84194
head 7.16763 -3.29909 3.18204
rclavicle 2.71838e-014 1.98785e-015
rhumerus -30.9132 1.92164 -85.7603
rradius 28.5585
rwrist -0.0203667
rhand -7.97104 -9.65853
rfingers 7.12502
rthumb 17.9367 -38.8514
lclavicle 2.71838e-014 1.98785e-015
lhumerus -212.036 -175.019 262.156
lradius 26.1245
lwrist 4.84614
lhand -3.74595 -4.7488
lfingers 7.12502
lthumb 21.9979 24.0203
rfemur -11.8281 -4.37872 25.4998
rtibia 32.8258
rfoot -22.5963 -5.36338
rtoes 3.23784
lfemur -7.64752 3.07324 -16.3566
ltibia 27.541
lfoot -22.4792 7.92506
ltoes -3.99844
1289
root -6.85405 16.8817 40.5942 5.23463 -22.9431 -5.31069
lowerback -3.21356 -0.374498 5.19128
upperback 1.58345 -0.736867 -0.182653
thorax 3.37446 -0.248821 -3.14592
lowerneck -11.1288 -5.10572 -4.64838
upperneck 15.4869 -7.93753 9.84065
head 7.16153 -3.29585 3.18078
rclavicle -2.79292e-014 3.97569e-016
rhumerus -30.8939 1.93248 -85.7541
rradius 28.5671
rwrist -0.0136724
rhand -7.98017 -9.65351
rfingers 7.12502
rthumb 17.9279 -38.8472
lclavicle -2.79292e-014 3.97569e-016
lhumerus -212.019 -174.983 262.18
lradius 26.183
lwrist 4.87758
lhand -3.75301 -4.75325
lfingers 7.12502
lthumb 21.9911 24.0166
rfemur -11.8304 -4.41047 25.4744
rtibia 32.8367
rfoot -22.6097 -5.35264
rtoes 3.22278
lfemur -7.64507 3.06927 -16.3802
ltibia 27.5287
lfoot -22.469 7.91128
ltoes -4.02083
1290
root -6.85614 16.8817 40.5953 5.22605 -22.9161 -5.26782
lowerback -3.22777 -0.38498 5.15723
upperback 1.58521 -0.749961 -0.188048
thorax 3.38331 -0.25576 -3.13333
lowerneck -11.1215 -5.0991 -4.64108
upperneck 15.4658 -7.92813 9.8425
head 7.15247 -3.29151 3.18126
rclavicle -4.95968e-014 -3.97569e-015
rhumerus -30.8778 1.95146 -85.7504
rradius 28.5764
rwrist -0.013045
rhand -7.9888 -9.6408
rfingers 7.12502
rthumb 17.9196 -38.8352
lclavicle -4.95968e-014 -3.97569e-015
lhumerus -212.007 -174.942 262.208
lradius 26.2441
lwrist 4.91566
lhand -3.75901 -4.75557
lfingers 7.12502
lthumb 21.9854 24.015
rfemur -11.8399 -4.44416 25.4358
rtibia 32.8549
rfoot -22.6254 -5.33723
rtoes 3.2244
lfemur -7.64013 3.0607 -16.4177
ltibia 27.506
lfoot -22.4566 7.90062
ltoes -4.03675
1291
root -6.85821 16.8818 40.5965 5.21803 -22.8898 -5.22383
lowerback -3.2429 -0.395182 5.12227
upperback 1.58502 -0.762615 -0.193665
thorax 3.39073 -0.262576 -3.12044
lowerneck -11.1099 -5.09211 -4.63471
upperneck 15.4447 -7.9185 9.84611
head 7.14276 -3.28711 3.18259
rclavicle 2.60408e-014 -7.55382e-015
rhumerus -30.8719 1.97683 -85.7482
rradius 28.5967
rwrist -0.0177104
rhand -7.9914 -9.63431
rfingers 7.12502
rthumb 17.9171 -38.829
lclavicle 2.60408e-014 -7.55382e-015
lhumerus -212 -174.897 262.238
lradius 26.3074
lwrist 4.95654
lhand -3.75913 -4.75913
lfingers 7.12502
lthumb 21.9853 24.0114
rfemur -11.8523 -4.48098 25.3953
rtibia 32.878
rfoot -22.643 -5.31665
rtoes 3.23857
lfemur -7.63171 3.04928 -16.4572
ltibia 27.4755
lfoot -22.4411 7.89437
ltoes -4.04762
1292
root -6.86031 16.882 40.5978 5.20856 -22.864 -5.16317
lowerback -3.26449 -0.405517 5.07167
upperback 1.58274 -0.77486 -0.203501
thorax 3.39974 -0.269484 -3.10318
lowerneck -11.1015 -5.08599 -4.62555
upperneck 15.4297 -7.9103 9.84541
head 7.13542 -3.28334 3.18185
rclavicle 4.89507e-014 -1.70955e-014
rhumerus -30.867 2.01119 -85.7489
rradius 28.6136
rwrist -0.0301113
rhand -7.99241 -9.62724
rfingers 7.12502
rthumb 17.9161 -38.822
lclavicle 4.89507e-014 -1.70955e-014
lhumerus -211.997 -174.845 262.271
lradius 26.372
lwrist 5.00506
lhand -3.75969 -4.76261
lfingers 7.12502
lthumb 21.9847 24.008
rfemur -11.8712 -4.52158 25.3373
rtibia 32.9034
rfoot -22.6622 -5.29006
rtoes 3.26962
lfemur -7.6258 3.03369 -16.515
ltibia 27.4408
lfoot -22.4261 7.89006
ltoes -4.05636
1293
root -6.86245 16.8822 40.5992 5.20053 -22.8409 -5.10422
lowerback -3.28921 -0.413076 5.02466
upperback 1.58046 -0.783704 -0.214086
thorax 3.41083 -0.274557 -3.08856
lowerneck -11.0902 -5.08175 -4.62014
upperneck 15.4135 -7.90492 9.84977
head 7.12774 -3.28085 3.18314
rclavicle 4.73108e-014 5.56597e-015
rhumerus -30.8619 2.04505 -85.7499
rradius 28.629
rwrist -0.0491015
rhand -7.98575 -9.62169
rfingers 7.12502
rthumb 17.9225 -38.8159
lclavicle 4.73108e-014 5.56597e-015
lhumerus -211.995 -174.784 262.307
lradius 26.4363
lwrist 5.05549
lhand -3.76239 -4.76932
lfingers 7.12502
lthumb 21.9821 24.0016
rfemur -11.8898 -4.55819 25.2812
rtibia 32.9274
rfoot -22.6801 -5.26553
rtoes 3.30084
lfemur -7.62011 3.01698 -16.5714
ltibia 27.4067
lfoot -22.4121 7.89008
ltoes -4.06711
